<?xml version="1.0" encoding="utf-8"?>
<!-- Generator: Adobe Illustrator 16.0.0, SVG Export Plug-In . SVG Version: 6.00 Build 0)  -->
<!DOCTYPE svg PUBLIC "-//W3C//DTD SVG 1.1//EN" "http://www.w3.org/Graphics/SVG/1.1/DTD/svg11.dtd">
<svg version="1.1" id="Layer_1" xmlns="http://www.w3.org/2000/svg" xmlns:xlink="http://www.w3.org/1999/xlink" x="0px" y="0px"
	 width="690.002px" height="555.355px" viewBox="0 0 690.002 555.355" enable-background="new 0 0 690.002 555.355"
	 xml:space="preserve">
<g>
	<polyline fill="#F2F2E4" points="690.002,0 690.002,555.355 0,555.355 0,0 690.002,0 	"/>
	<g>
		<polygon fill="#33B649" points="670.002,435.355 631.163,474.194 592.324,435.355 570.002,457.678 608.841,496.517 
			570.002,535.355 670.002,535.355 		"/>
		<polygon fill="#E61239" points="560.002,435.355 521.163,474.194 482.324,435.355 460.002,457.678 498.841,496.517 
			460.002,535.355 560.002,535.355 		"/>
		<polygon fill="#33B649" points="450.001,435.355 411.162,474.194 372.323,435.355 350.001,457.678 388.84,496.517 
			350.001,535.355 450.001,535.355 		"/>
		<polyline fill="#E61239" points="340.001,435.355 301.162,474.194 262.323,435.355 240.001,457.678 278.84,496.517 
			240.001,535.355 340.001,535.355 340.001,435.355 		"/>
		<polygon fill="#33B649" points="230.001,435.355 191.162,474.194 152.323,435.355 130.001,457.678 168.84,496.517 
			130.001,535.355 230.001,535.355 		"/>
		<polygon fill="#E61239" points="120.001,435.355 81.162,474.194 42.323,435.355 20.001,457.678 58.84,496.517 20.001,535.355 
			120.001,535.355 		"/>
		<polygon fill="#33B649" points="670.002,227.678 631.163,266.517 592.324,227.678 570.002,250 608.841,288.839 570.002,327.678 
			670.002,327.678 		"/>
		<polygon fill="#E61239" points="560.002,227.678 521.163,266.517 482.324,227.678 460.002,250 498.841,288.839 460.002,327.678 
			560.002,327.678 		"/>
		<polygon fill="#33B649" points="450.001,227.678 411.162,266.517 372.323,227.678 350.001,250 388.84,288.839 350.001,327.678 
			450.001,327.678 		"/>
		<polygon fill="#E61239" points="340.001,227.678 301.162,266.517 262.323,227.678 240.001,250 278.84,288.839 240.001,327.678 
			340.001,327.678 		"/>
		<polygon fill="#33B649" points="230.001,227.678 191.162,266.517 152.323,227.678 130.001,250 168.84,288.839 130.001,327.678 
			230.001,327.678 		"/>
		<polygon fill="#E61239" points="120.001,227.678 81.162,266.517 42.323,227.678 20.001,250 58.84,288.839 20.001,327.678 
			120.001,327.678 		"/>
		<polygon fill="#33B649" points="20,337.678 20,437.678 120,337.678 		"/>
		
			<rect x="73.636" y="379.635" transform="matrix(-0.7071 0.7071 -0.7071 -0.7071 440.5109 631.7297)" fill="#33B649" width="31.568" height="54.925"/>
		<polygon fill="#E61239" points="130,337.678 130,437.678 230,337.678 		"/>
		
			<rect x="183.636" y="379.635" transform="matrix(-0.7071 0.7071 -0.7071 -0.7071 628.2926 553.948)" fill="#E61239" width="31.568" height="54.925"/>
		<polyline fill="#92D496" points="340.002,337.678 240.002,337.678 278.84,376.516 240.002,415.355 261.163,436.517 
			262.323,435.355 263.485,436.518 301.162,398.838 338.84,436.517 340.001,435.355 340.001,437.677 340.002,437.678 
			340.002,337.678 		"/>
		<path fill="#8C6441" d="M262.323,435.355l-1.161,1.161l1.162,1.161l1.161-1.16L262.323,435.355 M340.001,435.355l-1.161,1.161
			l1.162,1.161L340.001,435.355"/>
		<polygon fill="#E61239" points="427.68,437.678 450.002,415.355 411.162,376.518 450.002,337.678 350.002,337.678 
			350.002,437.678 388.84,398.84 		"/>
		<polygon fill="#33B649" points="537.68,437.678 560.002,415.355 521.162,376.518 560.002,337.678 460.002,337.678 
			460.002,437.678 498.84,398.84 		"/>
		<polygon fill="#E61239" points="647.68,437.678 670.002,415.355 631.162,376.518 670.002,337.678 570.002,337.678 
			570.002,437.678 608.84,398.84 		"/>
		<polygon fill="#33B649" points="670.002,20 631.163,58.839 592.324,20 570.002,42.322 608.841,81.161 570.002,120 670.002,120 		
			"/>
		<polygon fill="#E61239" points="560.002,20 521.163,58.839 482.324,20 460.002,42.322 498.841,81.161 460.002,120 560.002,120 		
			"/>
		<polygon fill="#33B649" points="450.001,20 411.162,58.839 372.323,20 350.001,42.322 388.84,81.161 350.001,120 450.001,120 		
			"/>
		<polygon fill="#E61239" points="340.001,20 301.162,58.839 262.323,20 240.001,42.322 278.84,81.161 240.001,120 340.001,120 		
			"/>
		<polygon fill="#33B649" points="230.001,20 191.162,58.839 152.323,20 130.001,42.322 168.84,81.161 130.001,120 230.001,120 		
			"/>
		<polygon fill="#E61239" points="120.001,20 81.162,58.839 42.323,20 20.001,42.322 58.84,81.161 20.001,120 120.001,120 		"/>
		<polygon fill="#33B649" points="20,130 20,230 120,130 		"/>
		
			<rect x="73.636" y="171.957" transform="matrix(-0.7071 0.7071 -0.7071 -0.7071 293.6605 277.2017)" fill="#33B649" width="31.568" height="54.925"/>
		<polygon fill="#E61239" points="130,130 130,230 230,130 		"/>
		
			<rect x="183.636" y="171.957" transform="matrix(-0.7071 0.7071 -0.7071 -0.7071 481.4423 199.4199)" fill="#E61239" width="31.568" height="54.925"/>
		<polygon fill="#33B649" points="317.68,230 340.002,207.678 301.162,168.84 340.002,130 240.002,130 240.002,230 278.84,191.162 
					"/>
		<polygon fill="#E61239" points="427.68,230 450.002,207.678 411.162,168.84 450.002,130 350.002,130 350.002,230 388.84,191.162 
					"/>
		<polygon fill="#33B649" points="537.68,230 560.002,207.678 521.162,168.84 560.002,130 460.002,130 460.002,230 498.84,191.162 
					"/>
		<polygon fill="#E61239" points="647.68,230 670.002,207.678 631.162,168.84 670.002,130 570.002,130 570.002,230 608.84,191.162 
					"/>
	</g>
</g>
</svg>
