<?xml version="1.0" encoding="utf-8"?>
<!-- Generator: Adobe Illustrator 16.0.0, SVG Export Plug-In . SVG Version: 6.00 Build 0)  -->
<!DOCTYPE svg PUBLIC "-//W3C//DTD SVG 1.1//EN" "http://www.w3.org/Graphics/SVG/1.1/DTD/svg11.dtd">
<svg version="1.1" id="Layer_1" xmlns="http://www.w3.org/2000/svg" xmlns:xlink="http://www.w3.org/1999/xlink" x="0px" y="0px"
	 width="900px" height="546.1px" viewBox="0 0 900 546.1" enable-background="new 0 0 900 546.1" xml:space="preserve">
<rect fill="#304441" width="900" height="546.1"/>
<g>
	<path fill="#0036DE" d="M779.994,0L312.183,516.032c-0.429,0.473-1.167,0.509-1.64,0.08l-2.196-1.991
		c-0.473-0.429-1.247-1.13-1.72-1.559l-8.123-7.364c-0.473-0.429-0.509-1.166-0.08-1.639L754.928,0h-70.5l-425.48,469.338
		c-0.429,0.473-1.13,1.247-1.559,1.72l-3.119,3.439c-0.43,0.473-0.393,1.211,0.08,1.64l3.44,3.119
		c0.473,0.429,1.247,1.13,1.72,1.559l22.742,20.616c0.473,0.429,0.51,1.166,0.08,1.639l-39.008,43.03h43.866l19.22-21.201
		c0.429-0.473,1.167-0.509,1.64-0.08l2.196,1.991c0.473,0.429,1.247,1.13,1.72,1.559l1.936,1.755
		c0.473,0.429,0.509,1.167,0.081,1.64L300.984,546.1h77.941L873.994,0H779.994z"/>
	<polygon fill="#0036DE" points="900,85.372 482.326,546.1 537.16,546.1 900,145.858 	"/>
	<polygon fill="#0036DE" points="900,164.761 554.296,546.1 612.264,546.1 900,228.704 	"/>
	<polygon fill="#0036DE" points="900,1.899 406.654,546.1 458.354,546.1 900,58.929 	"/>
	<polygon fill="#0036DE" points="74.136,0 0,81.777 0,130.166 118.002,0 	"/>
	<path fill="#0036DE" d="M4.484,249.62c0.473,0.429,1.211,0.393,1.64-0.08l3.117-3.44c0.429-0.473,1.131-1.247,1.56-1.72L232.345,0
		h-40.733L0,211.362v34.192c0.371,0.335,0.761,0.688,1.045,0.946L4.484,249.62z"/>
	<polygon fill="#0036DE" points="702.346,546.1 786.947,546.1 900,421.393 900,328.071 	"/>
	<path fill="#0036DE" d="M63.713,300.181l3.119-3.44c0.428-0.473,0.393-1.211-0.081-1.64l-3.44-3.118
		c-0.473-0.429-1.247-1.13-1.72-1.559l-19.349-17.541c-0.473-0.429-0.51-1.167-0.08-1.64L288.059,0h-43.867L17.305,250.275
		c-0.43,0.473-1.131,1.247-1.561,1.72l-3.117,3.44c-0.429,0.473-0.393,1.21,0.08,1.639l3.439,3.118
		c0.473,0.429,1.247,1.13,1.72,1.559l9.46,8.576c0.473,0.429,0.509,1.166,0.08,1.639L0,302.197v68.263l62.153-68.561
		C62.582,301.427,63.283,300.653,63.713,300.181z"/>
	<path fill="#0036DE" d="M234.141,457.816l1.291,1.17c0.473,0.429,1.211,0.393,1.639-0.08l3.119-3.44
		c0.428-0.474,1.13-1.247,1.559-1.72L653.094,0H565.36L194.371,409.23c-0.429,0.473-1.166,0.509-1.639,0.08l-12.47-11.306
		c-0.473-0.429-0.509-1.166-0.079-1.639L539.511,0h-75.2L138.905,358.946c-0.429,0.473-1.167,0.51-1.64,0.081l-9.936-9.008
		c-0.473-0.429-0.946-0.858-1.052-0.954c-0.105-0.095,0.159-0.56,0.588-1.032L442.376,0h-51.7L98.488,322.306
		c-0.43,0.474-1.168,0.51-1.641,0.081l-9.936-9.008c-0.473-0.429-1.246-1.13-1.719-1.56l-3.439-3.118
		c-0.473-0.429-1.211-0.393-1.641,0.08l-3.117,3.44c-0.43,0.473-1.131,1.246-1.561,1.719L0,397.153v37.882l6.088,5.52
		c0.473,0.429,1.247,1.131,1.72,1.56l3.44,3.118c0.473,0.429,1.211,0.393,1.639-0.08l3.118-3.44c0.429-0.473,1.131-1.247,1.56-1.72
		l88.05-97.126c0.429-0.473,1.167-0.509,1.64-0.08l7.356,6.669c0.473,0.429,0.946,0.857,1.052,0.953s-0.159,0.562-0.588,1.034
		l-88.051,97.125c-0.428,0.473-1.13,1.247-1.559,1.72l-3.119,3.439c-0.429,0.473-0.393,1.211,0.08,1.64l3.441,3.119
		c0.473,0.429,1.247,1.13,1.72,1.559l15.432,13.991L0,521.487V546.1h37.306L75.743,503.7l19.302,17.499
		c0.473,0.429,0.51,1.167,0.081,1.64L74.038,546.1h78.504l79.96-88.202C232.931,457.425,233.668,457.388,234.141,457.816z
		 M74.779,484.026l-16.34-14.812l84.152-92.827c0.429-0.473,1.166-0.509,1.639-0.08l14.621,13.254
		c0.473,0.429,0.508,1.166,0.079,1.639L74.779,484.026z M213.536,440.704l-83.371,91.966c-0.429,0.473-1.167,0.509-1.64,0.08
		l-14.143-12.82c-0.473-0.429-0.51-1.167-0.08-1.64l83.371-91.967c0.429-0.473,1.166-0.509,1.639-0.08l14.145,12.82
		C213.93,439.493,213.965,440.231,213.536,440.704z"/>
</g>
<g>
	<g>
		<path fill="#F4FF4C" d="M332.317,546.6c-0.198,0-0.377-0.117-0.457-0.297c-0.08-0.182-0.046-0.393,0.086-0.539l4.319-4.765
			c0.099-0.108,0.234-0.164,0.371-0.164c0.12,0,0.24,0.043,0.336,0.13l5.256,4.764c0.153,0.14,0.205,0.358,0.13,0.551
			c-0.074,0.193-0.26,0.32-0.466,0.32H332.317z"/>
		<path fill="#304441" d="M336.637,541.335l5.256,4.765h-9.575L336.637,541.335 M336.637,540.335c-0.272,0-0.544,0.11-0.741,0.328
			l-4.319,4.765c-0.266,0.293-0.334,0.715-0.173,1.077c0.16,0.361,0.519,0.595,0.914,0.595h9.575c0.414,0,0.784-0.254,0.933-0.641
			c0.148-0.385,0.045-0.822-0.261-1.1l-5.256-4.766C337.117,540.42,336.876,540.335,336.637,540.335L336.637,540.335z"/>
	</g>
	<g>
		<path fill="#F4FF4C" d="M291.705,501.102c-0.12,0-0.24-0.043-0.336-0.129l-28.379-25.727c-0.098-0.09-0.157-0.215-0.164-0.347
			s0.04-0.262,0.129-0.36L693.457-0.336c0.095-0.104,0.229-0.164,0.371-0.164h51.701c0.198,0,0.377,0.117,0.457,0.297
			c0.08,0.181,0.046,0.392-0.086,0.539L292.076,500.938C291.977,501.047,291.841,501.102,291.705,501.102z"/>
		<path fill="#304441" d="M745.528,0L291.705,500.602l-28.379-25.727L693.827,0H745.528 M745.528-1h-51.701
			c-0.282,0-0.551,0.119-0.741,0.328L262.585,474.203c-0.178,0.197-0.271,0.456-0.258,0.721c0.013,0.266,0.131,0.514,0.327,0.691
			l28.379,25.727c0.191,0.174,0.432,0.26,0.671,0.26c0.272,0,0.544-0.11,0.741-0.328L746.269,0.672
			c0.266-0.293,0.334-0.715,0.173-1.077C746.282-0.767,745.924-1,745.528-1L745.528-1z"/>
	</g>
	<g>
		<path fill="#F4FF4C" d="M491.727,546.6c-0.198,0-0.377-0.117-0.457-0.297c-0.08-0.182-0.046-0.393,0.086-0.539L899.629,95.406
			c0.097-0.106,0.232-0.164,0.371-0.164c0.061,0,0.122,0.011,0.18,0.034c0.193,0.074,0.32,0.26,0.32,0.466v39.747
			c0,0.124-0.046,0.244-0.129,0.336l-372.24,410.61c-0.095,0.104-0.229,0.164-0.371,0.164H491.727z"/>
		<path fill="#304441" d="M900,95.742v39.747L527.76,546.1h-36.033L900,95.742 M900,94.742c-0.277,0-0.547,0.115-0.741,0.328
			L490.986,545.428c-0.266,0.293-0.334,0.715-0.173,1.077c0.16,0.361,0.519,0.595,0.914,0.595h36.033
			c0.282,0,0.551-0.119,0.741-0.328l372.24-410.61c0.167-0.184,0.259-0.424,0.259-0.672V95.742c0-0.414-0.254-0.784-0.64-0.933
			C900.243,94.764,900.121,94.742,900,94.742L900,94.742z"/>
	</g>
	<g>
		<path fill="#F4FF4C" d="M563.695,546.6c-0.198,0-0.377-0.117-0.457-0.297c-0.08-0.182-0.046-0.393,0.086-0.539l336.305-370.97
			c0.097-0.106,0.232-0.164,0.371-0.164c0.061,0,0.122,0.011,0.18,0.034c0.193,0.074,0.32,0.26,0.32,0.466v43.204
			c0,0.124-0.046,0.244-0.129,0.336L603.233,546.436c-0.095,0.104-0.229,0.164-0.371,0.164H563.695z"/>
		<path fill="#304441" d="M900,175.13v43.204L602.862,546.1h-39.167L900,175.13 M900,174.13c-0.277,0-0.547,0.115-0.741,0.328
			l-336.305,370.97c-0.266,0.293-0.334,0.715-0.173,1.077c0.16,0.361,0.519,0.595,0.914,0.595h39.167
			c0.282,0,0.551-0.119,0.741-0.328l297.138-327.766c0.167-0.184,0.259-0.424,0.259-0.672V175.13c0-0.413-0.254-0.784-0.64-0.933
			C900.243,174.152,900.121,174.13,900,174.13L900,174.13z"/>
	</g>
	<g>
		<path fill="#F4FF4C" d="M416.053,546.6c-0.198,0-0.377-0.117-0.457-0.297c-0.08-0.182-0.046-0.393,0.086-0.539L899.629,11.933
			c0.097-0.106,0.232-0.164,0.371-0.164c0.061,0,0.122,0.011,0.18,0.034c0.192,0.074,0.32,0.26,0.32,0.466V48.56
			c0,0.124-0.046,0.244-0.129,0.336l-451.047,497.54c-0.095,0.104-0.229,0.164-0.371,0.164H416.053z"/>
		<path fill="#304441" d="M900,12.269V48.56L448.953,546.1h-32.9L900,12.269 M900,11.269c-0.277,0-0.547,0.115-0.741,0.328
			L415.312,545.428c-0.266,0.293-0.334,0.715-0.173,1.077c0.16,0.361,0.519,0.595,0.914,0.595h32.9c0.282,0,0.551-0.119,0.741-0.328
			l451.047-497.54c0.167-0.184,0.259-0.424,0.259-0.672V12.269c0-0.413-0.254-0.784-0.64-0.933
			C900.243,11.291,900.121,11.269,900,11.269L900,11.269z"/>
	</g>
	<g>
		<path fill="#F4FF4C" d="M35.443,268.786c-0.12,0-0.24-0.043-0.336-0.13l-13.76-12.473c-0.098-0.09-0.157-0.215-0.164-0.347
			c-0.006-0.132,0.04-0.263,0.129-0.36L253.221-0.336c0.095-0.104,0.229-0.164,0.371-0.164h25.068c0.198,0,0.377,0.117,0.457,0.297
			s0.046,0.392-0.086,0.539L35.814,268.622C35.715,268.73,35.58,268.786,35.443,268.786z"/>
		<path fill="#304441" d="M278.66,0L35.443,268.286l-13.76-12.474L253.592,0H278.66 M278.66-1h-25.068
			c-0.282,0-0.551,0.119-0.741,0.328L20.943,255.141c-0.178,0.197-0.271,0.456-0.258,0.721c0.013,0.266,0.131,0.514,0.327,0.691
			l13.76,12.475c0.192,0.174,0.432,0.259,0.671,0.259c0.272,0,0.544-0.11,0.741-0.328L279.401,0.672
			c0.266-0.293,0.334-0.715,0.173-1.077C279.414-0.767,279.056-1,278.66-1L278.66-1z"/>
	</g>
	<g>
		<path fill="#F4FF4C" d="M0,120.298c-0.061,0-0.122-0.011-0.18-0.034c-0.193-0.074-0.32-0.26-0.32-0.466V92.146
			c0-0.124,0.046-0.244,0.129-0.336L83.165-0.336C83.259-0.44,83.394-0.5,83.535-0.5h25.068c0.198,0,0.377,0.117,0.457,0.297
			s0.046,0.392-0.086,0.539L0.371,120.134C0.274,120.24,0.138,120.298,0,120.298z"/>
		<path fill="#304441" d="M108.604,0L0,119.798V92.146L83.535,0H108.604 M108.604-1H83.535c-0.282,0-0.551,0.119-0.741,0.328
			L-0.741,91.474C-0.908,91.658-1,91.897-1,92.146v27.652c0,0.414,0.254,0.784,0.64,0.933c0.117,0.045,0.239,0.067,0.36,0.067
			c0.277,0,0.547-0.115,0.741-0.328L109.344,0.672c0.266-0.293,0.334-0.715,0.173-1.077C109.357-0.767,108.999-1,108.604-1
			L108.604-1z"/>
	</g>
	<g>
		<path fill="#F4FF4C" d="M4.862,241.062c-0.12,0-0.24-0.043-0.336-0.13l-4.862-4.406c-0.104-0.096-0.164-0.23-0.164-0.371V221.73
			c0-0.124,0.046-0.244,0.129-0.336L200.641-0.336c0.095-0.104,0.229-0.164,0.371-0.164h21.933c0.198,0,0.377,0.117,0.457,0.297
			s0.046,0.392-0.086,0.539L5.233,240.897C5.134,241.006,4.999,241.062,4.862,241.062z"/>
		<path fill="#304441" d="M222.944,0L4.862,240.562L0,236.154V221.73L201.012,0H222.944 M222.944-1h-21.933
			c-0.282,0-0.551,0.119-0.741,0.328L-0.741,221.059C-0.908,221.242-1,221.482-1,221.73v14.424c0,0.282,0.119,0.551,0.329,0.741
			l4.862,4.407c0.192,0.174,0.432,0.259,0.671,0.259c0.272,0,0.544-0.11,0.741-0.328L223.685,0.672
			c0.266-0.293,0.334-0.715,0.173-1.077C223.698-0.767,223.34-1,222.944-1L222.944-1z"/>
	</g>
	<g>
		<path fill="#F4FF4C" d="M711.748,546.6c-0.198,0-0.377-0.117-0.457-0.297c-0.08-0.182-0.046-0.393,0.086-0.539l188.252-207.657
			c0.097-0.106,0.232-0.164,0.371-0.164c0.061,0,0.122,0.011,0.18,0.034c0.193,0.074,0.32,0.26,0.32,0.466v72.582
			c0,0.124-0.046,0.243-0.129,0.336L777.917,546.436c-0.095,0.104-0.229,0.164-0.371,0.164H711.748z"/>
		<path fill="#304441" d="M900,338.442v72.582L777.547,546.1h-65.799L900,338.442 M900,337.442c-0.277,0-0.547,0.115-0.741,0.328
			L711.007,545.428c-0.266,0.293-0.334,0.715-0.173,1.077c0.16,0.361,0.519,0.595,0.914,0.595h65.799
			c0.282,0,0.551-0.119,0.741-0.328l122.453-135.075c0.167-0.185,0.259-0.424,0.259-0.672v-72.582c0-0.413-0.254-0.784-0.64-0.933
			C900.243,337.465,900.121,337.442,900,337.442L900,337.442z"/>
	</g>
	<g>
		<path fill="#F4FF4C" d="M48.604,470.196c-0.12,0-0.24-0.043-0.336-0.13l-17.199-15.592c-0.098-0.089-0.157-0.213-0.164-0.346
			c-0.006-0.133,0.04-0.262,0.129-0.36l90.388-99.705c0.099-0.108,0.234-0.164,0.371-0.164c0.12,0,0.24,0.043,0.336,0.13
			l17.199,15.592c0.098,0.089,0.157,0.213,0.164,0.346c0.006,0.133-0.04,0.262-0.129,0.36l-90.388,99.705
			C48.875,470.141,48.74,470.196,48.604,470.196z"/>
		<path fill="#304441" d="M121.792,354.399l17.199,15.592l-90.388,99.705l-17.199-15.592L121.792,354.399 M121.792,353.399
			c-0.272,0-0.544,0.11-0.741,0.328l-90.388,99.705c-0.178,0.196-0.271,0.456-0.258,0.721c0.013,0.265,0.131,0.514,0.327,0.692
			l17.199,15.592c0.192,0.174,0.432,0.259,0.671,0.259c0.272,0,0.544-0.11,0.741-0.328l90.388-99.705
			c0.178-0.196,0.271-0.456,0.258-0.721c-0.013-0.265-0.131-0.514-0.327-0.692l-17.199-15.592
			C122.272,353.484,122.032,353.399,121.792,353.399L121.792,353.399z"/>
	</g>
	<g>
		<path fill="#F4FF4C" d="M252.723,546.6c-0.198,0-0.377-0.117-0.457-0.297c-0.08-0.182-0.046-0.393,0.086-0.539l36.328-40.071
			c0.089-0.099,0.214-0.157,0.346-0.163c0.008-0.001,0.016-0.001,0.024-0.001c0.124,0,0.244,0.046,0.336,0.13l13.759,12.473
			c0.205,0.186,0.22,0.502,0.035,0.707l-25.02,27.598c-0.095,0.104-0.229,0.164-0.371,0.164H252.723z"/>
		<path fill="#304441" d="M289.051,506.028l13.759,12.474L277.79,546.1h-25.067L289.051,506.028 M289.051,505.028
			c-0.016,0-0.033,0.001-0.049,0.001c-0.265,0.014-0.514,0.131-0.692,0.327l-36.328,40.071c-0.266,0.293-0.334,0.715-0.173,1.077
			c0.16,0.361,0.519,0.595,0.914,0.595h25.067c0.282,0,0.551-0.119,0.741-0.328l25.02-27.598c0.371-0.409,0.34-1.042-0.069-1.412
			l-13.759-12.475C289.538,505.12,289.298,505.028,289.051,505.028L289.051,505.028z"/>
	</g>
	<g>
		<path fill="#F4FF4C" d="M341.893,546.6c-0.124,0-0.244-0.047-0.336-0.129l-4.885-4.43l-3.983,4.395
			c-0.095,0.104-0.229,0.164-0.371,0.164h-21.934c-0.198,0-0.377-0.117-0.457-0.297c-0.08-0.182-0.046-0.393,0.086-0.539
			l13.878-15.309l-8.444-7.656c-0.205-0.186-0.22-0.502-0.035-0.706L789.024-0.336c0.095-0.104,0.229-0.164,0.371-0.164h75.201
			c0.198,0,0.377,0.117,0.457,0.297s0.046,0.392-0.086,0.539l-495.069,546.1c-0.095,0.104-0.229,0.164-0.371,0.164H341.893z"/>
		<path fill="#304441" d="M864.596,0L369.526,546.1h-27.634l-5.256-4.765l-4.319,4.765h-21.934l14.214-15.679l-8.814-7.992
			L789.395,0H864.596 M864.596-1h-75.201c-0.282,0-0.551,0.119-0.741,0.328L315.042,521.757c-0.371,0.409-0.34,1.042,0.069,1.413
			l8.074,7.32l-13.542,14.938c-0.266,0.293-0.334,0.715-0.173,1.077c0.16,0.361,0.519,0.595,0.914,0.595h21.934
			c0.282,0,0.551-0.119,0.741-0.328l3.648-4.023l4.515,4.092c0.184,0.168,0.423,0.26,0.671,0.26h27.634
			c0.282,0,0.551-0.119,0.741-0.328l495.069-546.1c0.266-0.293,0.333-0.715,0.173-1.077C865.35-0.767,864.991-1,864.596-1L864.596-1
			z"/>
	</g>
	<g>
		<path fill="#F4FF4C" d="M0,360.592c-0.061,0-0.122-0.011-0.18-0.033c-0.193-0.074-0.32-0.26-0.32-0.467v-47.524
			c0-0.124,0.046-0.243,0.129-0.336l34.125-37.644c0.089-0.098,0.214-0.156,0.346-0.164c0.008,0,0.016,0,0.024,0
			c0.124,0,0.244,0.046,0.336,0.129l23.648,21.439c0.205,0.186,0.22,0.502,0.035,0.706L0.371,360.428
			C0.274,360.534,0.138,360.592,0,360.592z"/>
		<path fill="#304441" d="M34.125,274.924l23.648,21.438L0,360.092v-47.524L34.125,274.924 M34.125,273.924
			c-0.016,0-0.033,0-0.049,0.001c-0.265,0.013-0.514,0.131-0.692,0.327l-34.125,37.644C-0.908,312.08-1,312.319-1,312.567v47.524
			c0,0.414,0.254,0.784,0.64,0.934c0.117,0.045,0.239,0.066,0.36,0.066c0.277,0,0.547-0.115,0.741-0.328l57.773-63.729
			c0.371-0.409,0.34-1.042-0.069-1.413l-23.648-21.438C34.612,274.016,34.373,273.924,34.125,273.924L34.125,273.924z"/>
	</g>
	<g>
		<path fill="#F4FF4C" d="M83.438,546.6c-0.198,0-0.377-0.117-0.457-0.297c-0.08-0.182-0.046-0.393,0.086-0.539l22.304-24.604
			c0.089-0.098,0.214-0.157,0.346-0.164c0.008,0,0.016,0,0.024,0c0.124,0,0.244,0.046,0.336,0.129l23.754,21.536l93.615-103.265
			l-25.812-23.398c-0.098-0.09-0.157-0.215-0.164-0.347s0.04-0.263,0.129-0.36L574.389-0.336c0.095-0.104,0.229-0.164,0.371-0.164
			h68.935c0.198,0,0.377,0.117,0.457,0.297s0.046,0.392-0.086,0.539L236.18,450.265c-0.099,0.108-0.234,0.164-0.371,0.164
			c-0.12,0-0.24-0.042-0.336-0.13l-2.64-2.393l-89.321,98.529c-0.095,0.104-0.229,0.164-0.371,0.164H83.438z"/>
		<path fill="#304441" d="M643.694,0L235.81,449.929l-3.011-2.729L143.142,546.1H83.438l22.304-24.604l24.125,21.871l94.286-104.006
			l-26.183-23.734L574.76,0H643.694 M643.694-1H574.76c-0.282,0-0.551,0.119-0.741,0.328L197.23,414.955
			c-0.178,0.197-0.271,0.456-0.258,0.721c0.013,0.266,0.131,0.514,0.327,0.692l25.442,23.062l-92.943,102.524l-23.384-21.199
			c-0.185-0.168-0.424-0.26-0.672-0.26c-0.016,0-0.033,0-0.049,0.001c-0.265,0.013-0.514,0.131-0.692,0.327l-22.304,24.604
			c-0.266,0.293-0.334,0.715-0.173,1.077c0.16,0.361,0.519,0.595,0.914,0.595h59.703c0.282,0,0.551-0.119,0.741-0.328l88.986-98.159
			l2.27,2.058c0.191,0.174,0.432,0.259,0.671,0.259c0.272,0,0.544-0.11,0.741-0.328L644.435,0.672
			c0.266-0.293,0.334-0.715,0.173-1.077C644.448-0.767,644.09-1,643.694-1L643.694-1z"/>
	</g>
	<g>
		<path fill="#F4FF4C" d="M103.686,520.132c-0.12,0-0.24-0.043-0.336-0.13l-28.425-25.768c-0.098-0.089-0.157-0.213-0.164-0.346
			s0.04-0.262,0.129-0.36l93.951-103.636l-26.671-24.178c-0.205-0.186-0.22-0.502-0.035-0.707L473.338-0.336
			c0.095-0.104,0.229-0.164,0.371-0.164h56.4c0.198,0,0.377,0.117,0.457,0.297s0.046,0.392-0.086,0.539L170.272,397.674
			l24.138,21.883c0.205,0.186,0.22,0.502,0.035,0.706l-90.389,99.705C103.958,520.076,103.822,520.132,103.686,520.132z"/>
		<path fill="#304441" d="M530.109,0L173.463,393.408l-3.896,4.3l24.508,22.219l-90.389,99.705l-28.425-25.768l90.389-99.706
			l3.897-4.3l-27.041-24.515L473.709,0H530.109 M530.109-1h-56.4c-0.282,0-0.551,0.119-0.741,0.328L141.765,364.672
			c-0.371,0.409-0.34,1.042,0.069,1.412l26.3,23.844l-3.226,3.559L74.52,493.192c-0.178,0.196-0.271,0.456-0.258,0.721
			c0.013,0.265,0.131,0.514,0.327,0.692l28.425,25.768c0.192,0.174,0.432,0.259,0.671,0.259c0.272,0,0.544-0.11,0.741-0.328
			l90.389-99.705c0.371-0.409,0.34-1.042-0.069-1.413l-23.768-21.547l3.226-3.559L530.85,0.672c0.266-0.293,0.334-0.715,0.173-1.077
			C530.863-0.767,530.505-1,530.109-1L530.109-1z"/>
	</g>
	<g>
		<path fill="#F4FF4C" d="M11.625,436.674c-0.12,0-0.24-0.043-0.336-0.129l-11.625-10.539c-0.104-0.094-0.164-0.229-0.164-0.37
			v-18.113c0-0.124,0.046-0.243,0.129-0.336l81.375-89.764c0.089-0.099,0.214-0.157,0.346-0.163
			c0.008-0.001,0.016-0.001,0.024-0.001c0.124,0,0.244,0.046,0.336,0.13l16.445,14.908L399.706-0.336
			C399.8-0.44,399.935-0.5,400.076-0.5h32.9c0.198,0,0.377,0.117,0.457,0.297s0.046,0.392-0.086,0.539L120.517,345.41
			c-0.089,0.098-0.214,0.156-0.346,0.164c-0.008,0-0.016,0-0.024,0c-0.124,0-0.244-0.046-0.336-0.129l-13.864-12.57L11.996,436.51
			C11.897,436.619,11.761,436.674,11.625,436.674z"/>
		<path fill="#304441" d="M432.977,0l-312.83,345.074l-14.234-12.905l-3.898,4.3l-90.389,99.705L0,425.636v-18.113l81.375-89.764
			l16.815,15.244l3.898-4.299L400.076,0H432.977 M432.977-1h-32.9c-0.282,0-0.551,0.119-0.741,0.328L101.348,328.032l-3.227,3.558
			l-16.074-14.572c-0.185-0.167-0.424-0.259-0.672-0.259c-0.016,0-0.033,0.001-0.049,0.001c-0.265,0.014-0.514,0.131-0.692,0.327
			l-81.375,89.764C-0.908,407.035-1,407.274-1,407.522v18.113c0,0.282,0.119,0.552,0.328,0.741l11.625,10.537
			c0.192,0.174,0.432,0.26,0.671,0.26c0.272,0,0.544-0.11,0.741-0.328l90.389-99.705l3.227-3.559l13.493,12.232
			c0.185,0.168,0.424,0.26,0.672,0.26c0.016,0,0.033,0,0.049-0.001c0.265-0.013,0.514-0.131,0.692-0.327L433.717,0.672
			c0.266-0.293,0.334-0.715,0.173-1.077C433.73-0.767,433.372-1,432.977-1L432.977-1z"/>
	</g>
	<g>
		<path fill="#F4FF4C" d="M0,546.6c-0.276,0-0.5-0.224-0.5-0.5v-14.243c0-0.124,0.046-0.243,0.129-0.336l52.855-58.304
			c0.099-0.109,0.234-0.164,0.371-0.164c0.12,0,0.24,0.043,0.336,0.129l22.405,20.312c0.098,0.089,0.157,0.213,0.164,0.346
			c0.006,0.133-0.04,0.262-0.129,0.36l-47.354,52.235c-0.095,0.104-0.229,0.164-0.371,0.164H0z"/>
		<path fill="#304441" d="M52.855,473.553l22.405,20.312L27.906,546.1H0v-14.243L52.855,473.553 M52.856,472.553
			c-0.272,0-0.544,0.11-0.741,0.328l-52.855,58.304C-0.908,531.369-1,531.608-1,531.856V546.1c0,0.553,0.448,1,1,1h27.906
			c0.282,0,0.551-0.119,0.741-0.328l47.354-52.235c0.178-0.196,0.271-0.456,0.258-0.721c-0.013-0.265-0.131-0.514-0.327-0.692
			l-22.405-20.311C53.335,472.639,53.095,472.553,52.856,472.553L52.856,472.553z"/>
	</g>
</g>
<g>
	<polygon fill="#304441" points="505.441,133.494 626.461,0 591.994,0 486.521,116.344 	"/>
	<polygon fill="#304441" points="563.701,186.312 732.603,0 706.752,0 549.512,173.448 	"/>
	<polygon fill="#304441" points="718.061,326.247 900,125.553 900,105.679 708.171,317.28 	"/>
	<polygon fill="#304441" points="758.854,363.228 900,207.533 900,185.932 748.105,353.483 	"/>
	<polygon fill="#304441" points="394.724,33.123 424.751,0 408.301,0 385.694,24.938 	"/>
	<polygon fill="#304441" points="625.832,242.636 845.795,0 808.193,0 605.192,223.926 	"/>
	<polygon fill="#304441" points="444.814,78.534 516.01,0 487.811,0 429.336,64.502 	"/>
</g>
</svg>
