<?xml version="1.0" encoding="utf-8"?>
<!-- Generator: Adobe Illustrator 16.0.0, SVG Export Plug-In . SVG Version: 6.00 Build 0)  -->
<!DOCTYPE svg PUBLIC "-//W3C//DTD SVG 1.1//EN" "http://www.w3.org/Graphics/SVG/1.1/DTD/svg11.dtd">
<svg version="1.1" id="Layer_1" xmlns="http://www.w3.org/2000/svg" xmlns:xlink="http://www.w3.org/1999/xlink" x="0px" y="0px"
	 width="900px" height="442.959px" viewBox="0 0 900 442.959" enable-background="new 0 0 900 442.959" xml:space="preserve">
<g>
	<polyline fill="#6EC5BC" points="0,442.959 900,442.959 900,0 0,0 0,442.959 	"/>
	<g>
		<polyline fill="#F0EAD9" points="176.955,210 176.955,110 276.955,110 176.955,210 		"/>
		<polyline fill="#F0EAD9" points="276.955,220 276.955,110 386.955,110 276.955,220 		"/>
		<polyline fill="#F0EAD9" points="387.567,185 387.567,110 462.567,110 387.567,185 		"/>
		<polyline fill="#F0EAD9" points="86.955,200 86.955,110 176.955,110 86.955,200 		"/>
		<polyline fill="#F0EAD9" points="462.567,175 462.567,110 527.567,110 462.567,175 		"/>
		<polyline fill="#F0EAD9" points="21.955,175 21.955,110 86.955,110 21.955,175 		"/>
		<polygon fill="#F0EAD9" points="527.567,160 527.567,110 577.567,110 		"/>
		<polygon fill="#F0EAD9" points="577.567,135 577.567,110 602.567,110 		"/>
		<polygon fill="#F0EAD9" points="602.567,130 602.567,110 622.567,110 		"/>
		<polygon fill="#F0EAD9" points="622.567,125 622.567,110 637.567,110 		"/>
		<polyline fill="#F0EAD9" points="0,110 0,131.956 21.955,110 0,110 		"/>
		<polyline fill="#F0EAD9" points="176.955,100 176.955,0 276.955,0 176.955,100 		"/>
		<polyline fill="#F0EAD9" points="276.955,110 276.955,0 386.955,0 276.955,110 		"/>
		<polyline fill="#F0EAD9" points="387.567,75 387.567,0 462.567,0 387.567,75 		"/>
		<polyline fill="#F0EAD9" points="86.955,90 86.955,0 176.955,0 86.955,90 		"/>
		<polyline fill="#F0EAD9" points="462.567,65 462.567,0 527.567,0 462.567,65 		"/>
		<polyline fill="#F0EAD9" points="21.955,65 21.955,0 86.955,0 21.955,65 		"/>
		<polygon fill="#F0EAD9" points="527.567,50 527.567,0 577.567,0 		"/>
		<polygon fill="#F0EAD9" points="577.567,25 577.567,0 602.567,0 		"/>
		<polygon fill="#F0EAD9" points="602.567,20 602.567,0 622.567,0 		"/>
		<polygon fill="#F0EAD9" points="622.567,15 622.567,0 637.567,0 		"/>
		<polygon fill="#F0EAD9" points="0,0 0,21.956 21.955,0 		"/>
		<polyline fill="#6E5E1C" points="276.955,55 221.955,55 176.955,100 176.955,110 221.955,110 276.955,55 		"/>
		<polyline fill="#F07020" points="221.955,110 176.955,110 176.955,155 221.955,110 		"/>
		<polyline fill="#F07020" points="221.955,55 176.955,55 176.955,100 221.955,55 		"/>
		<polyline fill="#6E5E1C" points="386.955,55 331.955,55 276.955,110 331.955,110 386.955,55 		"/>
		<polyline fill="#F07020" points="331.955,110 276.955,110 276.955,165 331.955,110 		"/>
		<polyline fill="#F07020" points="331.955,55 276.955,55 276.955,110 331.955,55 		"/>
		<polyline fill="#6E5E1C" points="462.567,55 407.567,55 387.567,75 387.567,110 407.567,110 462.567,55 		"/>
		<polyline fill="#F07020" points="407.567,110 387.567,110 387.567,130 407.567,110 		"/>
		<polyline fill="#F07020" points="407.567,55 387.567,55 387.567,75 407.567,55 		"/>
		<polyline fill="#6E5E1C" points="176.955,55 121.955,55 86.955,90 86.955,110 121.955,110 176.955,55 		"/>
		<polyline fill="#F07020" points="121.955,110 86.955,110 86.955,145 121.955,110 		"/>
		<polyline fill="#F07020" points="121.955,55 86.955,55 86.955,90 121.955,55 		"/>
		<polyline fill="#6E5E1C" points="527.567,55 472.567,55 462.567,65 462.567,110 472.567,110 527.567,55 		"/>
		<polyline fill="#F07020" points="472.567,110 462.567,110 462.567,120 472.567,110 		"/>
		<polyline fill="#F07020" points="472.567,55 462.567,55 462.567,65 472.567,55 		"/>
		<polyline fill="#6E5E1C" points="86.955,55 31.955,55 21.955,65 21.955,110 31.955,110 86.955,55 		"/>
		<polyline fill="#F07020" points="31.955,110 21.955,110 21.955,120 31.955,110 		"/>
		<polyline fill="#F07020" points="31.955,55 21.955,55 21.955,65 31.955,55 		"/>
		<polyline fill="#6E5E1C" points="577.567,55 527.567,55 527.567,105 577.567,55 		"/>
		<polyline fill="#6E5E1C" points="602.567,55 577.567,55 577.567,80 602.567,55 		"/>
		<polyline fill="#6E5E1C" points="622.567,55 602.567,55 602.567,75 622.567,55 		"/>
		<polyline fill="#6E5E1C" points="637.567,55 622.567,55 622.567,70 637.567,55 		"/>
		<polyline fill="#6E5E1C" points="21.955,55 0,55 0,76.956 21.955,55 		"/>
		<polyline fill="#F0EAD9" points="176.955,320 176.955,220 276.955,220 176.955,320 		"/>
		<polyline fill="#F0EAD9" points="276.955,330 276.955,220 386.955,220 276.955,330 		"/>
		<polyline fill="#F0EAD9" points="387.567,295 387.567,220 462.567,220 387.567,295 		"/>
		<polyline fill="#F0EAD9" points="86.955,310 86.955,220 176.955,220 86.955,310 		"/>
		<polyline fill="#F0EAD9" points="462.567,285 462.567,220 527.567,220 462.567,285 		"/>
		<polyline fill="#F0EAD9" points="21.955,285 21.955,220 86.955,220 21.955,285 		"/>
		<polygon fill="#F0EAD9" points="527.567,270 527.567,220 577.567,220 		"/>
		<polygon fill="#F0EAD9" points="577.567,245 577.567,220 602.567,220 		"/>
		<polygon fill="#F0EAD9" points="602.567,240 602.567,220 622.567,220 		"/>
		<polygon fill="#F0EAD9" points="622.567,235 622.567,220 637.567,220 		"/>
		<polyline fill="#F0EAD9" points="0,220 0,241.956 21.955,220 0,220 		"/>
		<polyline fill="#6E5E1C" points="276.955,165 221.955,165 176.955,210 176.955,220 221.955,220 276.955,165 		"/>
		<polyline fill="#F07020" points="221.955,165 176.955,165 176.955,210 221.955,165 		"/>
		<polyline fill="#F07020" points="221.955,220 176.955,220 176.955,265 221.955,220 		"/>
		<polyline fill="#6E5E1C" points="386.955,165 331.955,165 276.955,220 331.955,220 386.955,165 		"/>
		<polyline fill="#F07020" points="331.955,165 276.955,165 276.955,220 331.955,165 		"/>
		<polyline fill="#F07020" points="331.955,220 276.955,220 276.955,275 331.955,220 		"/>
		<polyline fill="#6E5E1C" points="462.567,165 407.567,165 387.567,185 387.567,220 407.567,220 462.567,165 		"/>
		<polyline fill="#F07020" points="407.567,165 387.567,165 387.567,185 407.567,165 		"/>
		<polyline fill="#F07020" points="407.567,220 387.567,220 387.567,240 407.567,220 		"/>
		<polyline fill="#6E5E1C" points="176.955,165 121.955,165 86.955,200 86.955,220 121.955,220 176.955,165 		"/>
		<polyline fill="#F07020" points="121.955,165 86.955,165 86.955,200 121.955,165 		"/>
		<polyline fill="#F07020" points="121.955,220 86.955,220 86.955,255 121.955,220 		"/>
		<polyline fill="#6E5E1C" points="527.567,165 472.567,165 462.567,175 462.567,220 472.567,220 527.567,165 		"/>
		<polyline fill="#F07020" points="472.567,165 462.567,165 462.567,175 472.567,165 		"/>
		<polyline fill="#F07020" points="472.567,220 462.567,220 462.567,230 472.567,220 		"/>
		<polyline fill="#6E5E1C" points="86.955,165 31.955,165 21.955,175 21.955,220 31.955,220 86.955,165 		"/>
		<polyline fill="#F07020" points="31.955,165 21.955,165 21.955,175 31.955,165 		"/>
		<polyline fill="#F07020" points="31.955,220 21.955,220 21.955,230 31.955,220 		"/>
		<polyline fill="#6E5E1C" points="577.567,165 527.567,165 527.567,215 577.567,165 		"/>
		<polyline fill="#6E5E1C" points="602.567,165 577.567,165 577.567,190 602.567,165 		"/>
		<polyline fill="#6E5E1C" points="622.567,165 602.567,165 602.567,185 622.567,165 		"/>
		<polyline fill="#6E5E1C" points="637.567,165 622.567,165 622.567,180 637.567,165 		"/>
		<polyline fill="#6E5E1C" points="21.955,165 0,165 0,186.956 21.955,165 		"/>
		<polyline fill="#F0EAD9" points="176.955,430 176.955,330 276.955,330 176.955,430 		"/>
		<polyline fill="#F0EAD9" points="276.955,440 276.955,330 386.955,330 276.955,440 		"/>
		<polyline fill="#F0EAD9" points="387.567,405 387.567,330 462.567,330 387.567,405 		"/>
		<polyline fill="#F0EAD9" points="86.955,420 86.955,330 176.955,330 86.955,420 		"/>
		<polyline fill="#F0EAD9" points="462.567,395 462.567,330 527.567,330 462.567,395 		"/>
		<polyline fill="#F0EAD9" points="21.955,395 21.955,330 86.955,330 21.955,395 		"/>
		<polygon fill="#F0EAD9" points="527.567,380 527.567,330 577.567,330 		"/>
		<polygon fill="#F0EAD9" points="577.567,355 577.567,330 602.567,330 		"/>
		<polygon fill="#F0EAD9" points="602.567,350 602.567,330 622.567,330 		"/>
		<polygon fill="#F0EAD9" points="622.567,345 622.567,330 637.567,330 		"/>
		<polyline fill="#F0EAD9" points="0,330 0,351.956 21.955,330 0,330 		"/>
		<polyline fill="#6E5E1C" points="276.955,275 221.955,275 176.955,320 176.955,330 221.955,330 276.955,275 		"/>
		<polyline fill="#F07020" points="221.955,275 176.955,275 176.955,320 221.955,275 		"/>
		<polyline fill="#F07020" points="221.955,330 176.955,330 176.955,375 221.955,330 		"/>
		<polyline fill="#6E5E1C" points="386.955,275 331.955,275 276.955,330 331.955,330 386.955,275 		"/>
		<polyline fill="#F07020" points="331.955,275 276.955,275 276.955,330 331.955,275 		"/>
		<polyline fill="#F07020" points="331.955,330 276.955,330 276.955,385 331.955,330 		"/>
		<polyline fill="#6E5E1C" points="462.567,275 407.567,275 387.567,295 387.567,330 407.567,330 462.567,275 		"/>
		<polyline fill="#F07020" points="407.567,275 387.567,275 387.567,295 407.567,275 		"/>
		<polyline fill="#F07020" points="407.567,330 387.567,330 387.567,350 407.567,330 		"/>
		<polyline fill="#6E5E1C" points="176.955,275 121.955,275 86.955,310 86.955,330 121.955,330 176.955,275 		"/>
		<polyline fill="#F07020" points="121.955,275 86.955,275 86.955,310 121.955,275 		"/>
		<polyline fill="#F07020" points="121.955,330 86.955,330 86.955,365 121.955,330 		"/>
		<polyline fill="#6E5E1C" points="527.567,275 472.567,275 462.567,285 462.567,330 472.567,330 527.567,275 		"/>
		<polyline fill="#F07020" points="472.567,275 462.567,275 462.567,285 472.567,275 		"/>
		<polyline fill="#F07020" points="472.567,330 462.567,330 462.567,340 472.567,330 		"/>
		<polyline fill="#6E5E1C" points="86.955,275 31.955,275 21.955,285 21.955,330 31.955,330 86.955,275 		"/>
		<polyline fill="#F07020" points="31.955,275 21.955,275 21.955,285 31.955,275 		"/>
		<polyline fill="#F07020" points="31.955,330 21.955,330 21.955,340 31.955,330 		"/>
		<polyline fill="#6E5E1C" points="577.567,275 527.567,275 527.567,325 577.567,275 		"/>
		<polyline fill="#6E5E1C" points="602.567,275 577.567,275 577.567,300 602.567,275 		"/>
		<polyline fill="#6E5E1C" points="622.567,275 602.567,275 602.567,295 622.567,275 		"/>
		<polyline fill="#6E5E1C" points="637.567,275 622.567,275 622.567,290 637.567,275 		"/>
		<polyline fill="#6E5E1C" points="21.955,275 0,275 0,296.956 21.955,275 		"/>
	</g>
</g>
</svg>
