<?xml version="1.0" encoding="utf-8"?>
<!-- Generator: Adobe Illustrator 16.0.0, SVG Export Plug-In . SVG Version: 6.00 Build 0)  -->
<!DOCTYPE svg PUBLIC "-//W3C//DTD SVG 1.1//EN" "http://www.w3.org/Graphics/SVG/1.1/DTD/svg11.dtd">
<svg version="1.1" id="Layer_1" xmlns="http://www.w3.org/2000/svg" xmlns:xlink="http://www.w3.org/1999/xlink" x="0px" y="0px"
	 width="820px" height="520px" viewBox="0 0 820 520" enable-background="new 0 0 820 520" xml:space="preserve">
<g>
	<polyline fill="#EFE4D0" points="0,0 0,520 820,520 820,0 0,0 	"/>
	<g>
		<path fill="#E31500" d="M556.886,10c-26.343,0-51.743,4.072-75.589,11.616C582.512,53.637,655.865,148.255,655.865,260
			c0,111.744-73.353,206.363-174.568,238.384C505.143,505.928,530.543,510,556.886,510c138.158,0,250.157-111.93,250.157-250
			C807.043,121.929,695.043,10,556.886,10"/>
		<path fill="#EC6873" d="M407.043,460.207c-22.553,16.885-48.051,30.053-75.589,38.596c23.459,7.276,48.4,11.197,74.253,11.197
			c26.343,0,51.743-4.072,75.589-11.616C454.268,489.833,429.232,476.82,407.043,460.207 M405.708,10
			c-25.854,0-50.794,3.921-74.253,11.197c27.538,8.543,53.036,21.711,75.589,38.596c22.189-16.613,47.225-29.626,74.254-38.177
			C457.451,14.072,432.051,10,405.708,10"/>
		<path fill="#E00A00" d="M481.297,21.616c-27.029,8.551-52.064,21.563-74.254,38.177c48.734,36.487,83.708,90.339,95.739,152.363
			c13.236-14.938,32.569-24.354,54.104-24.354c39.899,0,72.243,32.324,72.243,72.197s-32.344,72.197-72.243,72.197
			c-21.535,0-40.869-9.416-54.104-24.354c-12.03,62.024-47.004,115.875-95.739,152.363c22.189,16.613,47.225,29.626,74.254,38.177
			C582.512,466.363,655.865,371.744,655.865,260C655.865,148.255,582.512,53.637,481.297,21.616"/>
		<path fill="#379D8C" d="M257.2,10C119.042,10,7.043,121.929,7.043,260c0,138.07,112,250,250.157,250
			c25.854,0,50.794-3.921,74.254-11.197C229.552,467.192,155.55,372.232,155.55,260c0-112.233,74.001-207.192,175.904-238.803
			C307.995,13.921,283.054,10,257.2,10"/>
		<path fill="#37484E" d="M331.454,21.197C229.552,52.808,155.55,147.767,155.55,260c0,112.232,74.001,207.192,175.904,238.803
			c27.538-8.543,53.036-21.711,75.589-38.596c-48.734-36.488-83.708-90.34-95.739-152.363
			c-13.236,14.938-32.57,24.354-54.104,24.354c-39.898,0-72.243-32.324-72.243-72.197s32.345-72.197,72.243-72.197
			c21.534,0,40.868,9.416,54.104,24.354c12.031-62.024,47.005-115.876,95.739-152.363C384.49,42.908,358.992,29.74,331.454,21.197"
			/>
		<path fill="#340700" d="M407.043,59.793c-48.734,36.487-83.708,90.339-95.739,152.363c11.287,12.738,18.139,29.491,18.139,47.844
			s-6.852,35.105-18.139,47.844c12.03,62.023,47.004,115.875,95.739,152.363c48.734-36.488,83.708-90.339,95.739-152.363
			c-11.287-12.738-18.139-29.491-18.139-47.844s6.852-35.105,18.139-47.844C490.751,150.132,455.777,96.28,407.043,59.793"/>
		<path fill="#E0B0AC" d="M556.886,187.803c-21.535,0-40.868,9.416-54.104,24.354c3.004,15.488,4.576,31.478,4.576,47.844
			c0,16.365-1.572,32.355-4.576,47.844c13.235,14.938,32.569,24.354,54.104,24.354c39.899,0,72.243-32.324,72.243-72.197
			S596.785,187.803,556.886,187.803"/>
		<path fill="#3BB0AC" d="M502.782,212.156c-11.287,12.738-18.139,29.491-18.139,47.844s6.852,35.105,18.139,47.844
			c3.004-15.488,4.576-31.479,4.576-47.844C507.358,243.634,505.786,227.645,502.782,212.156"/>
		<path fill="#F2484E" d="M257.2,187.803c-39.898,0-72.243,32.324-72.243,72.197s32.345,72.197,72.243,72.197
			c21.534,0,40.868-9.416,54.104-24.354c-3.004-15.488-4.576-31.479-4.576-47.844c0-16.366,1.572-32.355,4.576-47.844
			C298.068,197.219,278.734,187.803,257.2,187.803"/>
		<path fill="#F21800" d="M311.304,212.156c-3.004,15.488-4.576,31.478-4.576,47.844c0,16.365,1.572,32.355,4.576,47.844
			c11.287-12.738,18.139-29.491,18.139-47.844S322.591,224.895,311.304,212.156"/>
	</g>
</g>
</svg>
