<?xml version="1.0" encoding="utf-8"?>
<!-- Generator: Adobe Illustrator 16.0.0, SVG Export Plug-In . SVG Version: 6.00 Build 0)  -->
<!DOCTYPE svg PUBLIC "-//W3C//DTD SVG 1.1//EN" "http://www.w3.org/Graphics/SVG/1.1/DTD/svg11.dtd">
<svg version="1.1" id="Layer_1" xmlns="http://www.w3.org/2000/svg" xmlns:xlink="http://www.w3.org/1999/xlink" x="0px" y="0px"
	 width="960px" height="606.101px" viewBox="0 0 960 606.101" enable-background="new 0 0 960 606.101" xml:space="preserve">
<g>
	<polyline fill="#304441" points="0,0 0,606.101 960,606.101 960,0 0,0 	"/>
	<polyline fill="#FF007F" points="302.823,302.824 657.177,302.824 725.381,371.03 234.619,371.03 302.823,302.824 	"/>
	<polyline fill="#FF007F" points="657.177,302.825 302.823,302.825 234.619,234.62 657.176,234.62 657.177,302.825 	"/>
	<polyline fill="#FF007F" points="302.824,302.825 234.619,234.622 234.619,371.032 302.824,302.825 	"/>
	<polyline fill="#FF007F" points="657.176,302.825 725.381,371.028 725.381,166.417 657.176,234.62 657.176,302.825 	"/>
	<polyline fill="#FFFF00" points="98.206,507.442 861.794,507.442 930,575.649 30,575.649 98.206,507.442 	"/>
	<polyline fill="#FFFF00" points="793.588,98.208 98.206,98.208 30,30.003 861.794,30.003 793.588,98.208 	"/>
	<polyline fill="#FFFF00" points="98.206,98.21 30,30.003 30,575.649 98.206,507.444 98.206,98.21 	"/>
	<polyline fill="#FFFF00" points="861.794,507.44 930,575.647 930,0.001 861.794,0 861.794,507.44 	"/>
	<polyline fill="#FF7F00" points="166.412,439.237 793.588,439.237 861.795,507.442 98.206,507.442 166.412,439.237 	"/>
	<polyline fill="#FF7F00" points="793.588,439.234 861.794,507.44 861.794,30.001 793.588,98.208 793.588,439.234 	"/>
	<polyline fill="#FF7F00" points="725.383,166.415 166.412,166.415 98.205,98.208 793.588,98.208 725.383,166.415 	"/>
	<polyline fill="#FF7F00" points="166.412,166.416 98.206,98.21 98.206,507.444 166.412,439.237 166.412,166.416 	"/>
	<polyline fill="#FF0000" points="234.619,371.03 725.381,371.03 793.588,439.237 166.412,439.237 234.619,371.03 	"/>
	<polyline fill="#FF0000" points="725.381,371.028 793.588,439.234 793.588,98.212 725.381,166.417 725.381,371.028 	"/>
	<polyline fill="#FF0000" points="657.176,234.62 234.619,234.62 166.412,166.413 725.381,166.413 657.176,234.62 	"/>
	<polyline fill="#FF0000" points="234.619,234.622 166.412,166.416 166.412,439.237 234.619,371.032 234.619,234.622 	"/>
	<polyline fill="#344240" points="960,0 861.794,0 930,0.001 930,575.647 861.794,507.44 793.588,439.234 725.381,371.028 
		725.381,166.417 793.588,98.212 793.588,98.208 725.383,166.415 657.176,234.62 725.381,166.417 725.381,371.028 691.278,336.927 
		725.381,371.03 793.588,439.237 861.795,507.442 930,575.649 30,575.649 30,30.003 861.794,30.003 861.794,30.001 861.794,0 0,0 
		0,606.101 960,606.101 960,0 	"/>
	<polyline fill="#CE1B74" points="725.381,166.417 657.176,234.62 657.177,302.825 657.177,302.824 691.278,336.927 
		725.381,371.028 725.381,166.417 	"/>
	<polyline fill="#F7F744" points="861.794,0 861.794,0 861.794,30.001 861.794,30.003 861.794,507.44 930,575.647 930,0.001 
		861.794,0 	"/>
	<path fill="#E0862D" d="M861.794,30.003L861.794,30.003l-68.206,68.205v0.004v341.022l68.206,68.206V30.001 M861.794,30.001
		L861.794,30.001v0.002V30.001"/>
	<polyline fill="#CA1717" points="793.588,98.212 793.588,98.212 725.381,166.417 725.381,371.028 793.588,439.234 793.588,98.212 	
		"/>
	<polyline fill="#2F3B3A" points="691.278,336.927 725.381,371.03 793.588,439.237 793.588,439.237 861.795,507.442 
		793.588,439.237 725.381,371.03 691.278,336.927 	"/>
	<polyline fill="#BA1869" points="657.177,302.825 302.823,302.825 234.619,371.032 725.381,371.03 691.278,336.927 
		657.176,302.825 	"/>
	<polyline fill="#BA1869" points="657.177,302.824 657.177,302.824 657.177,302.825 657.176,302.825 691.278,336.927 
		657.177,302.824 	"/>
	<polyline fill="#DFDF3D" points="861.794,507.442 98.206,507.442 98.206,507.444 30,575.649 930,575.649 861.794,507.442 	"/>
	<polyline fill="#CA7A29" points="793.588,439.237 793.588,439.237 793.588,439.237 166.412,439.237 98.206,507.444 
		861.795,507.442 861.794,507.442 861.795,507.442 793.588,439.237 	"/>
	<polyline fill="#B61515" points="725.381,371.03 725.381,371.03 234.619,371.03 234.619,371.032 166.412,439.237 793.588,439.237 
		725.381,371.03 	"/>
	<polyline fill="#344240" points="30,30.003 98.206,98.21 98.206,98.208 30,30.003 	"/>
	<polyline fill="#344240" points="98.206,98.21 98.206,98.21 166.412,166.416 234.619,234.622 280.089,280.091 234.619,234.62 
		166.412,166.415 98.205,98.208 	"/>
	<path fill="#252F2D" d="M166.412,166.415L166.412,166.415l68.207,68.205l-68.207-68.207 M725.383,166.415L725.383,166.415
		l-68.207,68.205l68.205-68.205"/>
	<polyline fill="#901351" points="657.176,234.62 234.619,234.62 280.089,280.091 302.824,302.825 302.823,302.824 657.177,302.824 
		657.176,234.62 	"/>
	<polyline fill="#901351" points="657.176,234.62 657.176,234.62 657.176,302.825 657.177,302.824 657.176,234.62 	"/>
	<polyline fill="#ADAD2F" points="861.794,30.003 30,30.003 98.206,98.208 793.588,98.208 861.794,30.001 	"/>
	<polyline fill="#9D5E20" points="861.794,30.003 861.794,30.003 861.794,30.001 793.588,98.208 861.794,30.003 	"/>
	<polyline fill="#9D5E20" points="793.588,98.208 98.205,98.208 98.206,98.21 166.412,166.415 166.412,166.413 725.381,166.413 
		725.383,166.415 725.381,166.415 725.383,166.415 793.588,98.208 	"/>
	<polyline fill="#8E1010" points="725.381,166.413 166.412,166.413 234.619,234.62 657.176,234.62 725.381,166.413 	"/>
	<polyline fill="#82114A" points="657.177,302.824 302.823,302.824 302.824,302.825 657.177,302.825 657.176,302.825 	"/>
	<polyline fill="#82114A" points="657.177,302.824 657.177,302.824 657.176,302.825 657.177,302.825 	"/>
	<polyline fill="#A5155D" points="234.619,234.622 234.619,371.032 234.619,371.03 302.823,302.824 280.089,280.091 
		234.619,234.622 	"/>
	<polyline fill="#C5C536" points="30,30.003 30,575.649 98.206,507.442 98.206,98.21 98.205,98.208 30,30.003 	"/>
	<polyline fill="#B36C24" points="98.206,98.21 98.206,507.444 98.206,507.442 166.412,439.237 166.412,166.416 98.206,98.21 	"/>
	<polyline fill="#A11212" points="166.412,166.416 166.412,439.237 166.412,439.237 234.619,371.03 234.619,234.622 
		166.412,166.416 	"/>
	<polyline fill="#951354" points="302.823,302.824 234.619,371.03 234.619,371.032 234.619,371.03 302.824,302.825 302.823,302.825 
			"/>
	<polyline fill="#B2B231" points="98.206,507.442 30,575.649 98.206,507.444 	"/>
	<polyline fill="#A26120" points="166.412,439.237 98.206,507.442 98.206,507.444 166.412,439.237 	"/>
	<polyline fill="#921010" points="234.619,371.03 166.412,439.237 166.412,439.237 234.619,371.032 	"/>
	<polyline fill="#740F41" points="280.089,280.091 302.823,302.825 302.823,302.824 280.089,280.091 	"/>
	<polyline fill="#680E3B" points="302.823,302.824 302.823,302.824 302.823,302.825 302.824,302.825 	"/>
</g>
</svg>
