<?xml version="1.0" encoding="utf-8"?>
<!-- Generator: Adobe Illustrator 16.0.0, SVG Export Plug-In . SVG Version: 6.00 Build 0)  -->
<!DOCTYPE svg PUBLIC "-//W3C//DTD SVG 1.1//EN" "http://www.w3.org/Graphics/SVG/1.1/DTD/svg11.dtd">
<svg version="1.1" id="Layer_1" xmlns="http://www.w3.org/2000/svg" xmlns:xlink="http://www.w3.org/1999/xlink" x="0px" y="0px"
	 width="914.51px" height="442.959px" viewBox="0 0 914.51 442.959" enable-background="new 0 0 914.51 442.959"
	 xml:space="preserve">
<g>
	<rect fill="#454A4E" width="914.51" height="442.959"/>
	<g>
		<polygon fill="#5C459F" points="516.156,182.212 519.867,198.212 586.613,198.212 589.089,182.212 		"/>
		<polygon fill="#657A47" points="378.08,137.212 381.791,153.212 495.252,153.212 491.521,137.212 		"/>
		<polygon fill="#657A47" points="495.791,153.212 492.08,137.212 491.521,137.212 		"/>
		<polygon fill="#EEDD5A" points="505.045,195.212 501.314,179.212 389.357,179.212 393.196,195.212 		"/>
		<polygon fill="#FF8749" points="510.409,218.212 506.678,202.212 394.875,202.212 398.713,218.212 		"/>
		<polygon fill="#657A47" points="562.881,205.212 566.592,221.212 583.055,221.212 585.53,205.212 		"/>
		<polygon fill="#5C459F" points="515.771,241.212 512.041,225.212 400.392,225.212 404.23,241.212 		"/>
		<polygon fill="#EEDD5A" points="581.972,228.212 516.848,228.212 520.579,244.212 579.496,244.212 		"/>
		<polygon fill="#657A47" points="521.135,264.212 517.404,248.212 405.909,248.212 409.748,264.212 		"/>
		<polygon fill="#5C459F" points="578.413,251.212 522.211,251.212 525.941,267.212 575.938,267.212 		"/>
		<polygon fill="#EEDD5A" points="526.498,287.212 522.767,271.212 411.427,271.212 415.265,287.212 		"/>
		<polygon fill="#FF8749" points="574.854,274.212 527.574,274.212 531.305,290.212 572.379,290.212 		"/>
		<polygon fill="#DB63AB" points="531.861,310.212 528.13,294.212 416.944,294.212 420.782,310.212 		"/>
		<polygon fill="#DB63AB" points="571.296,297.212 532.937,297.212 536.668,313.212 568.82,313.212 		"/>
		<polygon fill="#FF8749" points="405.189,317.212 408.9,333.212 537.224,333.212 533.493,317.212 		"/>
		<polygon fill="#EEDD5A" points="567.737,320.212 538.3,320.212 542.031,336.212 565.262,336.212 		"/>
		<polygon fill="#DB63AB" points="590.916,190.212 588.551,206.212 704.514,206.212 728.07,190.212 		"/>
		<polygon fill="#DB63AB" points="496.651,159.212 323.813,159.212 327.43,175.212 500.382,175.212 		"/>
		<polygon fill="#DB63AB" points="729.321,195.212 749.671,195.212 751.469,180.278 		"/>
		<polygon fill="#FF8749" points="587.517,212.212 585.152,228.212 672.124,228.212 695.68,212.212 		"/>
		<polygon fill="#657A47" points="692.68,220.212 669.124,236.212 744.732,236.212 746.659,220.212 		"/>
		<polygon fill="#5C459F" points="584.117,234.212 581.752,250.212 639.733,250.212 663.29,234.212 		"/>
		<polygon fill="#EEDD5A" points="660.29,242.212 636.733,258.212 742.083,258.212 744.01,242.212 		"/>
		<polygon fill="#5C459F" points="627.899,264.212 604.343,280.212 739.433,280.212 741.359,264.212 		"/>
		<polygon fill="#EEDD5A" points="580.718,256.212 578.353,272.212 607.343,272.212 630.899,256.212 		"/>
		<polygon fill="#DB63AB" points="577.318,278.212 575.066,294.135 598.51,278.212 		"/>
		<polygon fill="#FF8749" points="595.51,286.212 574.133,300.731 573.924,302.212 736.783,302.212 738.71,286.212 		"/>
		<polygon fill="#DB63AB" points="572.368,310.212 570.104,326.212 733.892,326.212 735.819,310.212 		"/>
		<polygon fill="#EEDD5A" points="569.115,333.212 566.852,349.212 731.122,349.212 733.049,333.212 		"/>
		<polygon fill="#FF8749" points="773.442,193.212 775.369,177.212 755.868,177.212 753.941,193.212 		"/>
		<polygon fill="#DB63AB" points="770.913,214.212 772.84,198.212 753.339,198.212 751.411,214.212 		"/>
		<polygon fill="#5C459F" points="768.383,235.212 770.311,219.212 750.809,219.212 748.882,235.212 		"/>
		<polygon fill="#FF8749" points="765.613,258.212 767.54,242.212 748.039,242.212 746.111,258.212 		"/>
		<polygon fill="#DB63AB" points="762.843,281.212 764.77,265.212 745.269,265.212 743.341,281.212 		"/>
		<polygon fill="#657A47" points="760.072,304.212 762,288.212 742.498,288.212 740.571,304.212 		"/>
		<polygon fill="#EEDD5A" points="757.302,327.212 759.229,311.212 739.728,311.212 737.801,327.212 		"/>
		<polygon fill="#DB63AB" points="754.532,350.212 756.459,334.212 736.958,334.212 735.03,350.212 		"/>
		<polygon fill="#DB63AB" points="379.444,340.212 383.155,356.212 542.587,356.212 538.856,340.212 		"/>
		<polygon fill="#5C459F" points="385.244,179.212 318.334,179.212 321.95,195.212 389.083,195.212 		"/>
		<polygon fill="#EEDD5A" points="390.762,202.212 313.532,202.212 317.149,218.212 394.6,218.212 		"/>
		<polygon fill="#657A47" points="396.279,225.212 318.731,225.212 322.348,241.212 400.117,241.212 		"/>
		<polygon fill="#DB63AB" points="401.796,248.212 340.93,248.212 344.547,264.212 405.634,264.212 		"/>
		<polygon fill="#FF8749" points="407.313,271.212 329.129,271.212 332.746,287.212 411.151,287.212 		"/>
		<polygon fill="#5C459F" points="412.831,294.212 342.573,294.212 346.284,310.212 416.669,310.212 		"/>
		<polygon fill="#EEDD5A" points="809.694,158.212 811.578,142.212 783.614,142.212 781.687,158.212 		"/>
		<polygon fill="#EEDD5A" points="802.79,136.212 804.673,120.212 786.264,120.212 784.336,136.212 		"/>
		<polygon fill="#5C459F" points="780.964,164.212 779.037,180.212 813.436,180.212 815.363,164.212 		"/>
		<polygon fill="#EEDD5A" points="778.193,187.212 776.267,203.212 810.666,203.212 812.593,187.212 		"/>
		<polygon fill="#DB63AB" points="775.423,210.212 773.496,226.212 807.896,226.212 809.822,210.212 		"/>
		<polygon fill="#657A47" points="772.653,233.212 770.726,249.212 805.125,249.212 807.052,233.212 		"/>
		<polygon fill="#FF8749" points="769.883,256.212 767.955,272.212 802.354,272.212 804.282,256.212 		"/>
		<polygon fill="#EEDD5A" points="767.112,279.212 765.185,295.212 799.584,295.212 801.512,279.212 		"/>
		<polygon fill="#DB63AB" points="834.243,331.212 760.849,331.212 758.922,347.212 832.36,347.212 		"/>
		<polygon fill="#EEDD5A" points="755.31,377.212 753.426,393.212 874.459,393.212 876.343,377.212 		"/>
		<polygon fill="#657A47" points="870.706,354.212 758.079,354.212 756.151,370.212 868.822,370.212 		"/>
		<polygon fill="#657A47" points="758.018,354.212 756.134,370.212 756.151,370.212 758.079,354.212 		"/>
		<polygon fill="#FF8749" points="820.477,155.212 818.549,171.212 883.89,171.212 885.949,155.212 		"/>
		<polygon fill="#DB63AB" points="822.885,135.212 820.958,151.212 866.463,151.212 868.522,135.212 		"/>
		<polygon fill="#657A47" points="817.947,176.212 816.02,192.212 871.187,192.212 873.246,176.212 		"/>
		<polygon fill="#FF8749" points="815.417,197.212 813.49,213.212 858.484,213.212 860.543,197.212 		"/>
		<polygon fill="#DB63AB" points="812.888,218.212 810.961,234.212 850.781,234.212 852.84,218.212 		"/>
		<polygon fill="#DB63AB" points="810.358,239.212 808.432,255.212 853.078,255.212 855.138,239.212 		"/>
		<polygon fill="#FF8749" points="805.661,278.212 823.803,278.212 825.687,262.212 807.588,262.212 		"/>
		<polygon fill="#EEDD5A" points="804.818,285.212 802.891,301.212 847.158,301.212 849.217,285.212 		"/>
		<polygon fill="#EEDD5A" points="568.929,343.212 543.663,343.212 545.062,349.212 568.042,349.212 		"/>
		<polygon fill="#FF8749" points="725.07,198.212 701.514,214.212 747.382,214.212 749.31,198.212 		"/>
		<polygon fill="#EEDD5A" points="708.793,49.162 700.376,35.556 556.267,124.678 586.686,124.678 		"/>
		<polygon fill="#657A47" points="500.716,159.032 504.55,175.473 580.218,128.678 549.799,128.678 		"/>
		<polygon fill="#FF8749" points="512.111,179.212 542.53,179.212 624.243,128.678 593.824,128.678 		"/>
		<polygon fill="#DB63AB" points="698.471,82.773 690.055,69.165 600.292,124.678 630.711,124.678 		"/>
		<polygon fill="#EEDD5A" points="700.79,108.565 692.375,94.957 644.317,124.678 674.736,124.678 		"/>
		<polygon fill="#5C459F" points="556.136,179.212 586.555,179.212 668.268,128.678 637.849,128.678 		"/>
		<polygon fill="#657A47" points="733.603,115.499 725.187,101.891 688.34,124.678 718.761,124.678 		"/>
		<polygon fill="#FF8749" points="600.159,179.212 630.58,179.212 712.293,128.678 681.873,128.678 		"/>
		<polygon fill="#FF8749" points="751.135,113.069 732.365,124.678 758.314,124.678 		"/>
		<polygon fill="#DB63AB" points="644.184,179.212 674.603,179.212 756.317,128.678 725.897,128.678 		"/>
		<polygon fill="#EEDD5A" points="734.974,150.291 688.208,179.212 718.628,179.212 743.558,163.795 		"/>
		<polygon fill="#DB63AB" points="495.168,135.237 499.002,151.679 536.194,128.678 505.775,128.678 		"/>
		<polygon fill="#DB63AB" points="502.848,365.545 424.154,414.212 454.574,414.212 533.268,365.545 		"/>
		<polygon fill="#EEDD5A" points="559,358.045 468.178,414.212 498.599,414.212 589.42,358.045 		"/>
		<polygon fill="#FF8749" points="609.196,354.229 512.204,414.212 542.623,414.212 639.615,354.229 		"/>
		<polygon fill="#657A47" points="683.641,354.229 653.221,354.229 570.243,405.545 600.662,405.545 		"/>
		<polygon fill="#5C459F" points="697.245,354.229 614.268,405.545 644.688,405.545 727.666,354.229 		"/>
		<polygon fill="#EEDD5A" points="658.291,405.545 688.711,405.545 701.867,397.408 701.867,378.596 		"/>
		<polygon fill="#FF8749" points="683.793,37.397 675.378,23.789 512.243,124.678 542.662,124.678 		"/>
		<polygon fill="#657A47" points="763.619,308.212 761.692,324.212 844.198,324.212 846.257,308.212 		"/>
	</g>
</g>
</svg>
