<?xml version="1.0" encoding="utf-8"?>
<!-- Generator: Adobe Illustrator 16.0.0, SVG Export Plug-In . SVG Version: 6.00 Build 0)  -->
<!DOCTYPE svg PUBLIC "-//W3C//DTD SVG 1.1//EN" "http://www.w3.org/Graphics/SVG/1.1/DTD/svg11.dtd">
<svg version="1.1" id="Layer_1" xmlns="http://www.w3.org/2000/svg" xmlns:xlink="http://www.w3.org/1999/xlink" x="0px" y="0px"
	 width="900px" height="442.959px" viewBox="0 0 900 442.959" enable-background="new 0 0 900 442.959" xml:space="preserve">
<g>
	<polyline fill="#6EC5BC" points="0,442.959 900,442.959 900,0 0,0 0,442.959 	"/>
	<polyline fill="#F0EAD9" points="176.956,210 176.956,110 276.956,110 176.956,210 	"/>
	<polyline fill="#F0EAD9" points="276.956,220 276.956,110 386.956,110 276.956,220 	"/>
	<polyline fill="#F0EAD9" points="387.568,185 387.568,110 462.568,110 387.568,185 	"/>
	<polyline fill="#F0EAD9" points="86.956,200 86.956,110 176.956,110 86.956,200 	"/>
	<polyline fill="#F0EAD9" points="462.568,175 462.568,110 527.568,110 462.568,175 	"/>
	<polyline fill="#F0EAD9" points="21.956,175 21.956,110 86.956,110 21.956,175 	"/>
	<polygon fill="#F0EAD9" points="527.568,160 527.568,110 577.568,110 	"/>
	<polygon fill="#F0EAD9" points="577.568,135 577.568,110 602.568,110 	"/>
	<polygon fill="#F0EAD9" points="602.568,130 602.568,110 622.568,110 	"/>
	<polygon fill="#F0EAD9" points="622.568,125 622.568,110 637.568,110 	"/>
	<polyline fill="#F0EAD9" points="0,110 0,131.956 21.956,110 0,110 	"/>
	<polyline fill="#F0EAD9" points="176.956,100 176.956,0 276.956,0 176.956,100 	"/>
	<polyline fill="#F0EAD9" points="276.956,110 276.956,0 386.956,0 276.956,110 	"/>
	<polyline fill="#F0EAD9" points="387.568,75 387.568,0 462.568,0 387.568,75 	"/>
	<polyline fill="#F0EAD9" points="86.956,90 86.956,0 176.956,0 86.956,90 	"/>
	<polyline fill="#F0EAD9" points="462.568,65 462.568,0 527.568,0 462.568,65 	"/>
	<polyline fill="#F0EAD9" points="21.956,65 21.956,0 86.956,0 21.956,65 	"/>
	<polygon fill="#F0EAD9" points="527.568,50 527.568,0 577.568,0 	"/>
	<polygon fill="#F0EAD9" points="577.568,25 577.568,0 602.568,0 	"/>
	<polygon fill="#F0EAD9" points="602.568,20 602.568,0 622.568,0 	"/>
	<polygon fill="#F0EAD9" points="622.568,15 622.568,0 637.568,0 	"/>
	<polygon fill="#F0EAD9" points="0,0 0,21.956 21.956,0 	"/>
	<polyline fill="#6E5E1C" points="276.956,55 221.956,55 176.956,100 176.956,110 221.956,110 276.956,55 	"/>
	<polyline fill="#F07020" points="221.956,110 176.956,110 176.956,155 221.956,110 	"/>
	<polyline fill="#F07020" points="221.956,55 176.956,55 176.956,100 221.956,55 	"/>
	<polyline fill="#6E5E1C" points="386.956,55 331.956,55 276.956,110 331.956,110 386.956,55 	"/>
	<polyline fill="#F07020" points="331.956,110 276.956,110 276.956,165 331.956,110 	"/>
	<polyline fill="#F07020" points="331.956,55 276.956,55 276.956,110 331.956,55 	"/>
	<polyline fill="#6E5E1C" points="462.568,55 407.568,55 387.568,75 387.568,110 407.568,110 462.568,55 	"/>
	<polyline fill="#F07020" points="407.568,110 387.568,110 387.568,130 407.568,110 	"/>
	<polyline fill="#F07020" points="407.568,55 387.568,55 387.568,75 407.568,55 	"/>
	<polyline fill="#6E5E1C" points="176.956,55 121.956,55 86.956,90 86.956,110 121.956,110 176.956,55 	"/>
	<polyline fill="#F07020" points="121.956,110 86.956,110 86.956,145 121.956,110 	"/>
	<polyline fill="#F07020" points="121.956,55 86.956,55 86.956,90 121.956,55 	"/>
	<polyline fill="#6E5E1C" points="527.568,55 472.568,55 462.568,65 462.568,110 472.568,110 527.568,55 	"/>
	<polyline fill="#F07020" points="472.568,110 462.568,110 462.568,120 472.568,110 	"/>
	<polyline fill="#F07020" points="472.568,55 462.568,55 462.568,65 472.568,55 	"/>
	<polyline fill="#6E5E1C" points="86.956,55 31.956,55 21.956,65 21.956,110 31.956,110 86.956,55 	"/>
	<polyline fill="#F07020" points="31.956,110 21.956,110 21.956,120 31.956,110 	"/>
	<polyline fill="#F07020" points="31.956,55 21.956,55 21.956,65 31.956,55 	"/>
	<polyline fill="#6E5E1C" points="577.568,55 527.568,55 527.568,105 577.568,55 	"/>
	<polyline fill="#6E5E1C" points="602.568,55 577.568,55 577.568,80 602.568,55 	"/>
	<polyline fill="#6E5E1C" points="622.568,55 602.568,55 602.568,75 622.568,55 	"/>
	<polyline fill="#6E5E1C" points="637.568,55 622.568,55 622.568,70 637.568,55 	"/>
	<polyline fill="#6E5E1C" points="21.956,55 0,55 0,76.956 21.956,55 	"/>
	<polyline fill="#F0EAD9" points="176.956,320 176.956,220 276.956,220 176.956,320 	"/>
	<polyline fill="#F0EAD9" points="276.956,330 276.956,220 386.956,220 276.956,330 	"/>
	<polyline fill="#F0EAD9" points="387.568,295 387.568,220 462.568,220 387.568,295 	"/>
	<polyline fill="#F0EAD9" points="86.956,310 86.956,220 176.956,220 86.956,310 	"/>
	<polyline fill="#F0EAD9" points="462.568,285 462.568,220 527.568,220 462.568,285 	"/>
	<polyline fill="#F0EAD9" points="21.956,285 21.956,220 86.956,220 21.956,285 	"/>
	<polygon fill="#F0EAD9" points="527.568,270 527.568,220 577.568,220 	"/>
	<polygon fill="#F0EAD9" points="577.568,245 577.568,220 602.568,220 	"/>
	<polygon fill="#F0EAD9" points="602.568,240 602.568,220 622.568,220 	"/>
	<polygon fill="#F0EAD9" points="622.568,235 622.568,220 637.568,220 	"/>
	<polyline fill="#F0EAD9" points="0,220 0,241.956 21.956,220 0,220 	"/>
	<polyline fill="#6E5E1C" points="276.956,165 221.956,165 176.956,210 176.956,220 221.956,220 276.956,165 	"/>
	<polyline fill="#F07020" points="221.956,165 176.956,165 176.956,210 221.956,165 	"/>
	<polyline fill="#F07020" points="221.956,220 176.956,220 176.956,265 221.956,220 	"/>
	<polyline fill="#6E5E1C" points="386.956,165 331.956,165 276.956,220 331.956,220 386.956,165 	"/>
	<polyline fill="#F07020" points="331.956,165 276.956,165 276.956,220 331.956,165 	"/>
	<polyline fill="#F07020" points="331.956,220 276.956,220 276.956,275 331.956,220 	"/>
	<polyline fill="#6E5E1C" points="462.568,165 407.568,165 387.568,185 387.568,220 407.568,220 462.568,165 	"/>
	<polyline fill="#F07020" points="407.568,165 387.568,165 387.568,185 407.568,165 	"/>
	<polyline fill="#F07020" points="407.568,220 387.568,220 387.568,240 407.568,220 	"/>
	<polyline fill="#6E5E1C" points="176.956,165 121.956,165 86.956,200 86.956,220 121.956,220 176.956,165 	"/>
	<polyline fill="#F07020" points="121.956,165 86.956,165 86.956,200 121.956,165 	"/>
	<polyline fill="#F07020" points="121.956,220 86.956,220 86.956,255 121.956,220 	"/>
	<polyline fill="#6E5E1C" points="527.568,165 472.568,165 462.568,175 462.568,220 472.568,220 527.568,165 	"/>
	<polyline fill="#F07020" points="472.568,165 462.568,165 462.568,175 472.568,165 	"/>
	<polyline fill="#F07020" points="472.568,220 462.568,220 462.568,230 472.568,220 	"/>
	<polyline fill="#6E5E1C" points="86.956,165 31.956,165 21.956,175 21.956,220 31.956,220 86.956,165 	"/>
	<polyline fill="#F07020" points="31.956,165 21.956,165 21.956,175 31.956,165 	"/>
	<polyline fill="#F07020" points="31.956,220 21.956,220 21.956,230 31.956,220 	"/>
	<polyline fill="#6E5E1C" points="577.568,165 527.568,165 527.568,215 577.568,165 	"/>
	<polyline fill="#6E5E1C" points="602.568,165 577.568,165 577.568,190 602.568,165 	"/>
	<polyline fill="#6E5E1C" points="622.568,165 602.568,165 602.568,185 622.568,165 	"/>
	<polyline fill="#6E5E1C" points="637.568,165 622.568,165 622.568,180 637.568,165 	"/>
	<polyline fill="#6E5E1C" points="21.956,165 0,165 0,186.956 21.956,165 	"/>
	<polyline fill="#F0EAD9" points="176.956,430 176.956,330 276.956,330 176.956,430 	"/>
	<polyline fill="#F0EAD9" points="276.956,440 276.956,330 386.956,330 276.956,440 	"/>
	<polyline fill="#F0EAD9" points="387.568,405 387.568,330 462.568,330 387.568,405 	"/>
	<polyline fill="#F0EAD9" points="86.956,420 86.956,330 176.956,330 86.956,420 	"/>
	<polyline fill="#F0EAD9" points="462.568,395 462.568,330 527.568,330 462.568,395 	"/>
	<polyline fill="#F0EAD9" points="21.956,395 21.956,330 86.956,330 21.956,395 	"/>
	<polygon fill="#F0EAD9" points="527.568,380 527.568,330 577.568,330 	"/>
	<polygon fill="#F0EAD9" points="577.568,355 577.568,330 602.568,330 	"/>
	<polygon fill="#F0EAD9" points="602.568,350 602.568,330 622.568,330 	"/>
	<polygon fill="#F0EAD9" points="622.568,345 622.568,330 637.568,330 	"/>
	<polyline fill="#F0EAD9" points="0,330 0,351.956 21.956,330 0,330 	"/>
	<polyline fill="#6E5E1C" points="276.956,275 221.955,275 176.956,320 176.956,330 221.955,330 276.956,275 	"/>
	<polyline fill="#F07020" points="221.955,275 176.956,275 176.956,320 221.955,275 	"/>
	<polyline fill="#F07020" points="221.955,330 176.956,330 176.956,375 221.955,330 	"/>
	<polyline fill="#6E5E1C" points="386.956,275 331.956,275 276.956,330 331.956,330 386.956,275 	"/>
	<polyline fill="#F07020" points="331.956,275 276.956,275 276.956,330 331.956,275 	"/>
	<polyline fill="#F07020" points="331.956,330 276.956,330 276.956,385 331.956,330 	"/>
	<polyline fill="#6E5E1C" points="462.568,275 407.568,275 387.568,295 387.568,330 407.568,330 462.568,275 	"/>
	<polyline fill="#F07020" points="407.568,275 387.568,275 387.568,295 407.568,275 	"/>
	<polyline fill="#F07020" points="407.568,330 387.568,330 387.568,350 407.568,330 	"/>
	<polyline fill="#6E5E1C" points="176.956,275 121.956,275 86.956,310 86.956,330 121.956,330 176.956,275 	"/>
	<polyline fill="#F07020" points="121.956,275 86.956,275 86.956,310 121.956,275 	"/>
	<polyline fill="#F07020" points="121.956,330 86.956,330 86.956,365 121.956,330 	"/>
	<polyline fill="#6E5E1C" points="527.568,275 472.568,275 462.568,285 462.568,330 472.568,330 527.568,275 	"/>
	<polyline fill="#F07020" points="472.568,275 462.568,275 462.568,285 472.568,275 	"/>
	<polyline fill="#F07020" points="472.568,330 462.568,330 462.568,340 472.568,330 	"/>
	<polyline fill="#6E5E1C" points="86.956,275 31.956,275 21.956,285 21.956,330 31.956,330 86.956,275 	"/>
	<polyline fill="#F07020" points="31.956,275 21.956,275 21.956,285 31.956,275 	"/>
	<polyline fill="#F07020" points="31.956,330 21.956,330 21.956,340 31.956,330 	"/>
	<polyline fill="#6E5E1C" points="577.568,275 527.568,275 527.568,325 577.568,275 	"/>
	<polyline fill="#6E5E1C" points="602.568,275 577.568,275 577.568,300 602.568,275 	"/>
	<polyline fill="#6E5E1C" points="622.568,275 602.568,275 602.568,295 622.568,275 	"/>
	<polyline fill="#6E5E1C" points="637.568,275 622.568,275 622.568,290 637.568,275 	"/>
	<polyline fill="#6E5E1C" points="21.956,275 0,275 0,296.956 21.956,275 	"/>
</g>
</svg>
